<svg xmlns="http://www.w3.org/2000/svg" viewBox="0 0 28.124 32">
    <g class="css-15on880" fill="#9896f1">
        <path xmlns="http://www.w3.org/2000/svg"
              d="M25.512 24.065 22.83 13.957l.417-.348 1.765 2.208c-.809-6.567-2.587-9.144-3.623-10.116H4.099a11.3 11.3 0 0 0-1.157 2.758c-.414 1.56-1.471 5.884-1.471 5.884l1.443-.541L.527 24.083C.232 25.357 0 27.381 0 28.688a3.313 3.313 0 0 0 3.31 3.31h19.495a3.313 3.313 0 0 0 3.31-3.31c0-1.318-.264-3.349-.603-4.623m-8.174-.895c-4.871 0-5.377-3.677-8.966-3.677-2.144 0-3.92 1.178-5.008 2.13l1.832-7.892 2.159 1.348 2.058-1.102 2.942 1.839 2.647-2.208 2.354 1.471 2.06-1.839 1.041.39 2.206 8.314c-1.014.591-2.71 1.227-5.328 1.227m4.56-20.045c.722-.868.603-1.603.448-1.984-.171-.429-.673-1.143-2.113-1.143H5.518c-1.482 0-1.992.796-2.141 1.139-.134.304-.337 1.065.33 1.988z"/>
        <path xmlns="http://www.w3.org/2000/svg"
              d="M28.12 4.655c.09-.965-1.339-1.607-2.797-1.74-1.54-.142-2.877.907-2.928.949l-.112.09H4.045a.461.461 0 0 0 0 .919h18.391q.018 0 .037.016c.128.496.404 1.25.956 1.856.58 1.153 1.545 2.682 3.494 4.277a.457.457 0 0 0 .647-.063.457.457 0 0 0-.065-.647 12.8 12.8 0 0 1-2.333-2.445c.352.13.689.204.986.204.54 0 .824-.225.965-.411.285-.374.262-.914-.06-1.522a4 4 0 0 0-.243-.388c.761-.197 1.248-.587 1.295-1.093m-1.703 1.825c.172.323.22.605.123.731-.079.105-.272.121-.38.121-.478 0-1.143-.274-1.761-.717a18 18 0 0 1-.526-1.092 3.6 3.6 0 0 0 1.181.336 6 6 0 0 0 .928.014c.179.204.33.41.434.606m-2.535-1.788a3.1 3.1 0 0 1 1.257.432l-.012-.002a3 3 0 0 1-1.243-.431m2.382.411a7 7 0 0 0-.536-.468c-.628-.476-1.376-.649-1.999-.698.425-.186.965-.343 1.531-.292 1.362.125 2.153.68 2.13.94-.016.158-.403.415-1.125.515"/>
    </g>
</svg>