<svg xmlns="http://www.w3.org/2000/svg" width="338.4" height="198.777" viewBox="0 0 275 161.536">
  <g fill="#9896f1">
    <path xmlns="http://www.w3.org/2000/svg" d="M108.853 127.686 97.408 84.549l1.776-1.482 7.533 9.416c-3.448-28.02-11.039-39.016-15.458-43.157H17.491c-1.61 2.754-3.618 6.823-4.936 11.77-1.775 6.659-6.277 25.11-6.277 25.11l6.156-2.309L2.251 127.76C.989 133.197 0 141.83 0 147.41c0 7.789 6.336 14.125 14.124 14.125H97.3c7.787 0 14.124-6.336 14.124-14.125 0-5.623-1.13-14.287-2.572-19.725m-34.876-3.815c-20.78 0-22.946-15.694-38.255-15.694-9.145 0-16.725 5.03-21.367 9.088l7.819-33.679 9.214 5.758 8.788-4.708 12.555 7.847 11.3-9.416 10.043 6.278 8.789-7.847 4.435 1.663 9.413 35.474c-4.328 2.516-11.562 5.236-22.734 5.236M93.433 38.34c3.085-3.708 2.569-6.844 1.91-8.473C94.607 28.048 92.458 25 86.316 25H23.54c-6.319 0-8.494 3.398-9.134 4.86-.57 1.297-1.44 4.54 1.406 8.48z"/>
    <path xmlns="http://www.w3.org/2000/svg" d="M119.983 44.862c.377-4.122-5.714-6.856-11.927-7.424-6.57-.606-12.272 3.874-12.495 4.053l-.477.382h-77.82a1.962 1.962 0 0 0 0 3.923h78.468c.05 0 .105.035.16.063.552 2.114 1.72 5.333 4.085 7.919 2.475 4.921 6.591 11.444 14.914 18.253a1.957 1.957 0 0 0 2.76-.274 1.96 1.96 0 0 0-.276-2.761c-4.49-3.674-7.641-7.205-9.958-10.432 1.497.556 2.938.87 4.208.87 2.302 0 3.512-.956 4.12-1.76 1.21-1.597 1.121-3.902-.253-6.493a15 15 0 0 0-1.033-1.658c3.249-.838 5.326-2.506 5.524-4.66m-7.263 7.788c.736 1.384.937 2.582.526 3.123-.342.45-1.163.518-1.621.518-2.039 0-4.876-1.17-7.52-3.065a72 72 0 0 1-2.243-4.658c1.498.705 3.193 1.257 5.04 1.427.82.077 1.64.114 2.44.114.522 0 1.027-.022 1.523-.052.764.867 1.406 1.747 1.855 2.593m-10.832-7.622c1.752.23 3.68.767 5.36 1.845l-.057-.003c-1.991-.182-3.8-.953-5.303-1.842m10.168 1.751a25 25 0 0 0-2.288-1.996c-2.679-2.034-5.876-2.767-8.532-2.979 1.818-.794 4.12-1.46 6.534-1.243 5.818.532 9.189 2.904 9.089 4.015-.063.68-1.717 1.773-4.803 2.203"/>
  </g>
  <path d="M167.12 42.05q2.915-1.863 2.915-5.27 0-2.564-1.827-4.409c-1.826-1.844-2.682-1.844-4.39-1.844H140v23.045h23.817q2.565 0 4.391-1.845c1.827-1.844 1.827-2.7 1.827-4.408q0-3.408-2.916-5.27m-3.302-9.555q1.757 0 3.004 1.265c1.247 1.265 1.247 1.85 1.247 3.021s-.416 2.178-1.247 3.021-1.832 1.265-3.004 1.265h-21.885v-8.572zm0 19.11h-21.885v-8.571h21.885q1.757 0 3.004 1.265c1.247 1.264 1.247 1.85 1.247 3.02s-.416 2.179-1.247 3.022-1.832 1.264-3.004 1.264m45.878.352L190.796 30l-18.302 21.956a.88.88 0 0 0-.21.597q0 1.019 1.018 1.019.422 0 .703-.352l5.55-6.674h22.904l5.761 6.674q.316.352.773.352.948 0 .948-.949a.98.98 0 0 0-.246-.667m-28.489-7.377 9.625-11.558 9.977 11.558zm61.124 7.517-13.103-13.103 12.857-6.428a.86.86 0 0 0 .527-.844q0-.562-.457-.843c-.456-.28-.62-.198-.948-.035l-26.698 13.35V31.72q0-.983-.983-.983c-.984 0-.984.328-.984.983V52.8q0 .948.984.948c.983 0 .983-.316.983-.948V46.37l12.892-6.464 13.525 13.56q.281.281.703.281.983 0 .983-.983a.91.91 0 0 0-.28-.668m31.685-9.063q.984 0 .984-.984c0-.983-.329-.983-.984-.983h-27.12v-8.572h27.12q.984 0 .984-.983c0-.984-.329-.984-.984-.984H244.93v23.045h29.086q.984 0 .984-.984c0-.984-.329-.984-.984-.984h-27.12v-8.571zM140 68.683v82.653q0 3.72 3.72 3.72 3.856 0 3.856-3.72V68.683q0-3.857-3.857-3.857-3.72 0-3.72 3.857m131.143-4.684H160.938q-3.857 0-3.857 3.858c0 3.857 1.288 3.857 3.857 3.857h51.245v78.796q0 3.857 3.857 3.857c3.858 0 3.858-1.288 3.858-3.858V71.715h51.244q3.858 0 3.858-3.858C275 64 273.712 64 271.142 64" fill="#9896f1"/>
</svg>
