<svg xmlns="http://www.w3.org/2000/svg" width="366.6" height="66.847" viewBox="0 0 355.374 64.8"><path d="M41.112 33.267q4.42-2.823 4.42-7.989 0-3.887-2.769-6.683c-2.77-2.796-4.066-2.796-6.657-2.796H0v34.935h36.106q3.888 0 6.657-2.796c2.77-2.796 2.77-4.092 2.77-6.683q0-5.166-4.42-7.988M36.105 18.78q2.663 0 4.553 1.918c1.891 1.917 1.891 2.803 1.891 4.58s-.631 3.301-1.89 4.58-2.778 1.917-4.554 1.917H2.93V18.78zm0 28.97H2.93V34.759h33.177q2.663 0 4.553 1.917c1.891 1.917 1.891 2.804 1.891 4.58s-.631 3.302-1.89 4.58-2.778 1.917-4.554 1.917m69.55.532L77.006 15 49.26 48.284a1.33 1.33 0 0 0-.32.906q0 1.544 1.545 1.544.639 0 1.065-.532l8.414-10.119h34.722l8.734 10.119q.479.532 1.171.532 1.438 0 1.438-1.438a1.5 1.5 0 0 0-.373-1.012M62.467 37.101l14.592-17.52L92.183 37.1zm92.663 11.396-19.864-19.863 19.491-9.746a1.305 1.305 0 0 0 .799-1.278q0-.852-.693-1.278c-.692-.426-.94-.301-1.437-.054l-40.474 20.237V17.61q0-1.491-1.49-1.491c-1.492 0-1.492.498-1.492 1.49v31.953q0 1.438 1.491 1.438c1.491 0 1.491-.479 1.491-1.438v-9.745l19.545-9.799L153 50.574q.426.426 1.065.426 1.49 0 1.49-1.49a1.39 1.39 0 0 0-.425-1.013m48.035-13.74q1.491 0 1.491-1.49c0-1.491-.498-1.491-1.49-1.491h-41.113V18.78h41.112q1.491 0 1.491-1.49c0-1.492-.498-1.492-1.49-1.492H159.07v34.935h44.094q1.491 0 1.491-1.491c0-1.491-.498-1.491-1.49-1.491h-41.113V34.758z" fill="#9896f1"/><g fill="#9896f1"><path xmlns="http://www.w3.org/2000/svg" d="m276.662 48.735-5.432-20.473.843-.703 3.575 4.47c-1.636-13.299-5.24-18.518-7.337-20.484h-35.01a22.9 22.9 0 0 0-2.343 5.587c-.842 3.16-2.98 11.917-2.98 11.917l2.923-1.096-4.833 20.817c-.6 2.581-1.068 6.679-1.068 9.327a6.71 6.71 0 0 0 6.703 6.704h39.476a6.71 6.71 0 0 0 6.704-6.704c0-2.669-.537-6.78-1.221-9.362m-16.553-1.81c-9.862 0-10.89-7.449-18.156-7.449-4.34 0-7.937 2.388-10.14 4.314l3.71-15.984 4.373 2.733 4.171-2.235 5.959 3.724 5.363-4.469 4.767 2.98 4.17-3.725 2.106.79 4.467 16.836c-2.054 1.194-5.487 2.485-10.79 2.485m9.234-40.593c1.464-1.76 1.22-3.249.907-4.022-.35-.863-1.37-2.31-4.285-2.31h-29.793c-2.999 0-4.03 1.613-4.335 2.306-.27.616-.684 2.155.668 4.026z"/><path xmlns="http://www.w3.org/2000/svg" d="M281.944 9.427c.179-1.957-2.712-3.254-5.66-3.524-3.12-.287-5.825 1.84-5.93 1.924l-.227.181h-36.934a.931.931 0 0 0 0 1.862h37.241c.024 0 .05.017.076.03.262 1.003.817 2.53 1.939 3.758 1.175 2.336 3.128 5.432 7.078 8.664a.93.93 0 0 0 1.31-.13.93.93 0 0 0-.13-1.311c-2.132-1.744-3.627-3.42-4.727-4.95.71.263 1.395.412 1.997.412 1.093 0 1.667-.454 1.955-.835.575-.758.533-1.853-.12-3.082a7 7 0 0 0-.49-.787c1.542-.398 2.528-1.19 2.622-2.212m-3.447 3.697c.35.657.445 1.225.25 1.482-.163.214-.552.246-.77.246-.967 0-2.314-.556-3.568-1.455a34 34 0 0 1-1.065-2.21 7.2 7.2 0 0 0 2.392.676c.389.037.778.055 1.157.055q.371-.001.724-.025c.362.411.667.83.88 1.23m-5.14-3.617c.83.11 1.746.364 2.543.876l-.027-.002c-.945-.086-1.804-.452-2.517-.874m4.826.831a12 12 0 0 0-1.086-.947c-1.271-.966-2.789-1.313-4.05-1.414.864-.377 1.956-.693 3.102-.59 2.76.253 4.36 1.378 4.313 1.905-.03.323-.815.842-2.279 1.046"/></g><path d="M302 16.852v32.677Q302 51 303.47 51q1.525 0 1.525-1.47V16.851q0-1.525-1.525-1.525-1.47 0-1.47 1.525M353.848 15h-43.57q-1.525 0-1.525 1.525c0 1.525.51 1.525 1.525 1.525h20.26v31.153q0 1.525 1.525 1.525c1.525 0 1.525-.51 1.525-1.525V18.05h20.26q1.525 0 1.525-1.525c0-1.525-.509-1.525-1.525-1.525" fill="#9896f1"/></svg>