<svg viewBox="0 0 336 382" fill="none" xmlns="http://www.w3.org/2000/svg">
    <g clip-path="url(#a)">
        <path d="m304.788 287.295-32.046-120.689 4.973-4.146 21.093 26.344c-9.655-78.395-30.91-109.16-43.283-120.745H48.975c-4.508 7.705-10.13 19.09-13.821 32.93-4.97 18.631-17.576 70.253-17.576 70.253l17.237-6.46-28.512 122.72C2.769 302.713 0 326.867 0 342.478c0 21.792 17.74 39.519 39.547 39.519H272.44c21.804 0 39.547-17.727 39.547-39.519 0-15.732-3.164-39.972-7.201-55.186m-97.65-10.674c-58.184 0-64.249-43.908-107.114-43.908-25.606 0-46.83 14.072-59.828 25.426l21.893-94.227 25.8 16.11 24.606-13.172 35.154 21.954 31.64-26.344 28.12 17.562 24.609-21.952 12.418 4.653 26.357 99.249c-12.119 7.039-32.374 14.649-63.655 14.649m54.476-239.295c8.638-10.375 7.194-19.149 5.348-23.706C264.9 8.527 258.882 0 241.685 0H65.912C48.219 0 42.129 9.507 40.337 13.597c-1.596 3.629-4.032 12.702 3.937 23.726z"
              fill="url(#b)"/>
        <path d="M335.952 55.57c1.056-11.533-15.999-19.182-33.395-20.771-18.396-1.696-34.362 10.839-34.986 11.34l-1.336 1.068H48.339a5.495 5.495 0 0 0-5.37 5.488 5.487 5.487 0 0 0 5.37 5.488H268.05c.14 0 .294.098.448.176 1.545 5.915 4.816 14.92 11.438 22.156 6.93 13.768 18.454 32.018 41.759 51.068a5.5 5.5 0 0 0 1.89 1.012c.69.209 1.415.28 2.133.209a5.48 5.48 0 0 0 3.705-1.987 5.5 5.5 0 0 0 1.217-4.023 5.5 5.5 0 0 0-1.99-3.702c-12.572-10.279-21.395-20.158-27.882-29.187 4.191 1.556 8.226 2.434 11.782 2.434 6.446 0 9.834-2.674 11.536-4.924 3.388-4.468 3.139-10.917-.708-18.166a42 42 0 0 0-2.893-4.639c9.097-2.344 14.913-7.01 15.467-13.037m-20.336 21.789c2.061 3.872 2.624 7.224 1.473 8.737-.958 1.26-3.257 1.45-4.539 1.45-5.709 0-13.653-3.274-21.056-8.576a201 201 0 0 1-6.28-13.032c4.194 1.973 8.94 3.517 14.112 3.993a73 73 0 0 0 6.832.319c1.461 0 2.875-.062 4.264-.146 2.139 2.426 3.937 4.888 5.194 7.255m-30.33-21.325c4.906.644 10.304 2.146 15.008 5.162l-.159-.008c-5.575-.51-10.64-2.667-14.849-5.154m28.471 4.899a70 70 0 0 0-6.407-5.584c-7.501-5.691-16.452-7.742-23.889-8.335 5.09-2.222 11.536-4.085 18.295-3.478 16.29 1.489 25.729 8.125 25.449 11.234-.176 1.902-4.807 4.96-13.448 6.163"
              fill="#D496F2"/>
    </g>
    <defs>
        <linearGradient id="b" x1="155.994" y1="0" x2="155.994" y2="381.997" gradientUnits="userSpaceOnUse">
            <stop stop-color="#D496F2"/>
            <stop offset=".86" stop-color="#9896F1"/>
        </linearGradient>
        <clipPath id="a">
            <path fill="#fff" d="M0 0h336v382H0z"/>
        </clipPath>
    </defs>
</svg>